<svg xmlns="http://www.w3.org/2000/svg" viewBox="0 0 600 71.65"><title>PORTFOLIO</title><path d="M52.65,35.92a21.51,21.51,0,0,1-6,7.62,26,26,0,0,1-8.91,4.61,37.84,37.84,0,0,1-10.93,1.53H15.24V70.46H0V1.19H28.3A33.45,33.45,0,0,1,39.44,2.92a23.8,23.8,0,0,1,8.31,4.9A21.27,21.27,0,0,1,53,15.39a25.17,25.17,0,0,1,1.83,9.75v.19A24.28,24.28,0,0,1,52.65,35.92ZM39.39,25.43q0-5.14-3.32-7.81t-9-2.68H15.24V36.12H27.31c3.83,0,6.8-1,8.91-3a9.91,9.91,0,0,0,3.17-7.47Z"/><path d="M133.89,49.73a35.38,35.38,0,0,1-19.34,19.1,38.15,38.15,0,0,1-14.8,2.82A37.74,37.74,0,0,1,85,68.83a36.67,36.67,0,0,1-11.63-7.62,34,34,0,0,1-7.62-11.28A35.46,35.46,0,0,1,63,36v-.2a35,35,0,0,1,2.77-13.9A35.44,35.44,0,0,1,85.16,2.82a40.09,40.09,0,0,1,29.54,0,36.63,36.63,0,0,1,11.62,7.62,34,34,0,0,1,7.62,11.28,35.47,35.47,0,0,1,2.73,13.91v.19A35,35,0,0,1,133.89,49.73ZM120.73,35.82a23.16,23.16,0,0,0-1.53-8.41,20.7,20.7,0,0,0-4.36-6.92,20.94,20.94,0,0,0-6.68-4.71,20.35,20.35,0,0,0-8.41-1.73,20.58,20.58,0,0,0-8.46,1.69,19.27,19.27,0,0,0-6.53,4.65,22,22,0,0,0-4.25,6.87A22.59,22.59,0,0,0,79,35.63v.19a23,23,0,0,0,1.54,8.42,20.88,20.88,0,0,0,11,11.62A20.13,20.13,0,0,0,100,57.6a20.65,20.65,0,0,0,8.41-1.69,19.08,19.08,0,0,0,6.58-4.65,21.76,21.76,0,0,0,4.26-6.88A22.7,22.7,0,0,0,120.73,36Z"/><path d="M192.28,70.46,177.44,48.29h-12V70.46H150.22V1.19h31.67q12.38,0,19.25,6T208,24.05v.2q0,8.4-4.11,13.7a23.82,23.82,0,0,1-10.74,7.77l16.92,24.74Zm.3-45.62q0-4.95-3.17-7.42t-8.81-2.48H165.46v19.9H180.9c3.76,0,6.65-.9,8.66-2.68a9,9,0,0,0,3-7.12Z"/><path d="M253.14,15.24V70.46H237.9V15.24H216.82v-14h57.4V15.24Z"/><path d="M301.14,14.94v15h33.05V43.64H301.14V70.46H285.9V1.19h52.74V14.94Z"/><path d="M418.6,49.73a35.46,35.46,0,0,1-19.34,19.1,38.15,38.15,0,0,1-14.8,2.82,37.74,37.74,0,0,1-14.74-2.82,36.67,36.67,0,0,1-11.63-7.62,34,34,0,0,1-7.62-11.28A35.46,35.46,0,0,1,347.75,36v-.2a35,35,0,0,1,2.77-13.9,35.44,35.44,0,0,1,19.35-19.1,40.09,40.09,0,0,1,29.54,0A36.63,36.63,0,0,1,411,10.44a34,34,0,0,1,7.62,11.28,35.47,35.47,0,0,1,2.73,13.91v.19A35,35,0,0,1,418.6,49.73ZM405.44,35.82a23.16,23.16,0,0,0-1.53-8.41,20.86,20.86,0,0,0-11-11.63,20.35,20.35,0,0,0-8.41-1.73A20.58,20.58,0,0,0,376,15.74a19.27,19.27,0,0,0-6.53,4.65,22.19,22.19,0,0,0-4.26,6.87,22.79,22.79,0,0,0-1.53,8.37v.19a23.17,23.17,0,0,0,1.53,8.42,20.94,20.94,0,0,0,11,11.62,20.13,20.13,0,0,0,8.46,1.74,20.65,20.65,0,0,0,8.41-1.69,19.08,19.08,0,0,0,6.58-4.65,21.94,21.94,0,0,0,4.26-6.88A22.7,22.7,0,0,0,405.44,36Z"/><path d="M434.93,70.46V1.19h15.24V56.71h34.54V70.46Z"/><path d="M496.88,70.46V1.19h15.24V70.46Z"/><path d="M597.23,49.73a35.44,35.44,0,0,1-19.35,19.1,38.13,38.13,0,0,1-14.79,2.82,37.79,37.79,0,0,1-14.75-2.82,36.67,36.67,0,0,1-11.63-7.62,34.27,34.27,0,0,1-7.62-11.28A35.64,35.64,0,0,1,526.37,36v-.2a35.13,35.13,0,0,1,2.77-13.9,36.08,36.08,0,0,1,7.67-11.38,35.68,35.68,0,0,1,11.68-7.72,40.09,40.09,0,0,1,29.54,0,36.67,36.67,0,0,1,11.63,7.62,34.27,34.27,0,0,1,7.62,11.28A35.64,35.64,0,0,1,600,35.63v.19A35.14,35.14,0,0,1,597.23,49.73ZM584.07,35.82a23,23,0,0,0-1.54-8.41,20.83,20.83,0,0,0-4.35-6.92,21.05,21.05,0,0,0-6.68-4.71,21.66,21.66,0,0,0-16.87,0,19.31,19.31,0,0,0-6.54,4.65,22,22,0,0,0-4.25,6.87,22.79,22.79,0,0,0-1.53,8.37v.19a23.17,23.17,0,0,0,1.53,8.42,20.88,20.88,0,0,0,11,11.62,20.13,20.13,0,0,0,8.46,1.74,20.73,20.73,0,0,0,8.42-1.69,19.27,19.27,0,0,0,6.58-4.65,21.91,21.91,0,0,0,4.25-6.88A22.5,22.5,0,0,0,584.07,36Z"/></svg>